<svg xmlns="http://www.w3.org/2000/svg" width="24" height="24" viewBox="0 0 24 24">
  <path fill="#1976D2" d="M21,11V9h2V7h-2V5c0-1.1-0.9-2-2-2h-2V1h-2v2H9V1H7v2H5C3.9,3,3,3.9,3,5v2H1v2h2v2H1v2h2v2H1v2h2v2c0,1.1,0.9,2,2,2h2v2h2v-2h6v2h2v-2h2c1.1,0,2-0.9,2-2v-2h2v-2h-2v-2h2v-2H21z M19,19H5V5h14V19z"/>

  <rect fill="#1976D2" x="7" y="7" width="3" height="3"/>
  <rect fill="#1976D2" x="14" y="7" width="3" height="3"/>
  <rect fill="#1976D2" x="7" y="14" width="3" height="3"/>
  <rect fill="#1976D2" x="14" y="14" width="3" height="3"/>
</svg>
